<?xml version="1.0" encoding="UTF-8" standalone="no"?>
<svg
   xmlns:dc="http://purl.org/dc/elements/1.1/"
   xmlns:cc="http://creativecommons.org/ns#"
   xmlns:rdf="http://www.w3.org/1999/02/22-rdf-syntax-ns#"
   xmlns:svg="http://www.w3.org/2000/svg"
   xmlns="http://www.w3.org/2000/svg"
   xmlns:sodipodi="http://sodipodi.sourceforge.net/DTD/sodipodi-0.dtd"
   xmlns:inkscape="http://www.inkscape.org/namespaces/inkscape"
   version="1.1"
   id="svg2"
   xml:space="preserve"
   width="333.42667"
   height="173.41333"
   viewBox="0 0 333.42667 173.41333"
   sodipodi:docname="apache-spark-seeklogo.com.eps"><metadata
     id="metadata8"><rdf:RDF><cc:Work
         rdf:about=""><dc:format>image/svg+xml</dc:format><dc:type
           rdf:resource="http://purl.org/dc/dcmitype/StillImage" /></cc:Work></rdf:RDF></metadata><defs
     id="defs6" /><sodipodi:namedview
     pagecolor="#ffffff"
     bordercolor="#666666"
     borderopacity="1"
     objecttolerance="10"
     gridtolerance="10"
     guidetolerance="10"
     inkscape:pageopacity="0"
     inkscape:pageshadow="2"
     inkscape:window-width="640"
     inkscape:window-height="480"
     id="namedview4" /><g
     id="g10"
     inkscape:groupmode="layer"
     inkscape:label="ink_ext_XXXXXX"
     transform="matrix(1.3333333,0,0,-1.3333333,0,173.41333)"><g
       id="g12"
       transform="scale(0.1)"><path
         d="m 2287.54,644.387 c -2.15,4.613 -3.13,6.933 -4.3,9.168 -31.34,59.562 -62.6,119.172 -94.2,178.593 -3.19,5.965 -2.8,9.52 1.57,14.618 49.82,58.214 99.4,116.66 149.04,175.054 1.74,2.05 3.3,4.24 3.96,7.88 -14.51,-3.8 -29.02,-7.54 -43.51,-11.38 -60.22,-15.95 -120.45,-31.859 -180.61,-48.039 -5.6,-1.504 -8.15,0.137 -10.94,4.785 -34.19,57.114 -68.57,114.104 -102.92,171.114 -1.77,2.97 -3.69,5.84 -7.47,8.33 -2.75,-15.21 -5.56,-30.42 -8.28,-45.63 -9.56,-53.74 -19.1,-107.5 -28.63,-161.243 -1.04,-5.801 -2.48,-11.574 -2.97,-17.422 -0.48,-5.547 -3.32,-7.598 -8.34,-9.176 -70.97,-22.277 -141.85,-44.769 -212.75,-67.242 -3.11,-0.981 -6.15,-2.254 -9.49,-5.293 l 174.88,-69.5 c -2.13,-1.699 -3.54,-3.008 -5.1,-4.035 -36.27,-23.461 -72.58,-46.832 -108.75,-70.414 -4.33,-2.813 -7.76,-3.219 -12.64,-1.032 -43.3,19.508 -86.77,38.645 -130.14,58.008 -19.48,8.703 -36.99,20.254 -50.64,36.934 -30.84,37.734 -24.74,80.656 16.35,106.871 13.44,8.574 28.71,15.016 43.94,19.98 69.5,22.641 139.26,44.473 208.99,66.387 5.84,1.82 8.55,4.442 9.65,10.767 9.33,53.79 18.87,107.54 28.61,161.25 5.18,28.71 7.94,58.18 21.92,84.5 5.37,10.12 11.8,20.03 19.45,28.51 27.67,30.72 66.31,31.91 95.58,2.65 9.88,-9.88 18.37,-21.53 25.71,-33.48 32.24,-52.58 63.96,-105.48 95.51,-158.47 3.74,-6.27 7.1,-7.54 14,-5.68 77.75,20.84 155.59,41.36 233.43,61.92 16.04,4.24 32.28,5.79 48.77,2.72 35.87,-6.72 51.55,-34.03 39.41,-68.68 -5.52,-15.8 -15.05,-29.13 -25.77,-41.73 -54.31,-63.855 -108.54,-127.804 -163.02,-191.507 -4.46,-5.207 -4.56,-8.977 -1.47,-14.785 32.51,-61.282 64.72,-122.704 97.08,-184.063 7.73,-14.687 13.64,-29.93 13.82,-46.797 0.39,-38.359 -27.67,-69.758 -65.79,-75.344 -21.35,-3.132 -41.19,1.426 -61.2,7.61 -48.76,15.047 -97.58,29.902 -146.45,44.582 -4.53,1.355 -6.25,3.125 -7.05,8.004 -5.63,34.39 -11.76,68.707 -17.68,103.043 -0.17,0.949 0.1,1.961 0.26,4.062 l 168.19,-46.398"
         style="fill:#dc6830;fill-opacity:1;fill-rule:nonzero;stroke:none"
         id="path14" /><path
         d="M 1746.32,605.125 1732.3,498.66 c -21.71,0 -43,0.129 -64.27,-0.047 -17.25,-0.129 -32.99,-11.261 -38.17,-27.363 -2.03,-6.301 -2.77,-13.039 -3.65,-19.648 -10.8,-81.739 -21.51,-163.481 -32.24,-245.231 -2.7,-20.609 -5.34,-41.23 -8.04,-62.16 h -106.87 c 1.99,15.719 3.87,30.93 5.86,46.121 6.94,52.969 13.93,105.938 20.95,158.895 6.08,45.832 11.49,91.757 18.66,137.421 9.59,61.211 70.5,115.563 132.27,118.247 29.47,1.289 59.04,0.222 89.52,0.222 M 1313.98,290.262 c -5.78,-44.203 -11.24,-86.211 -16.91,-128.192 -0.29,-2.121 -1.96,-5.019 -3.77,-5.859 -85.82,-39.75 -198.84,-34.199 -269.32,45.84 -37.867,43.008 -53.753,94.039 -51.378,150.828 5.488,131.445 114.468,246.187 244.788,262.219 76.15,9.367 142.92,-11.192 194.51,-70.344 35.13,-40.293 51.39,-88.406 48.99,-141.512 -1.58,-35.078 -7.08,-70 -11.45,-104.922 -6.18,-49.441 -12.94,-98.832 -19.48,-148.238 -0.23,-1.762 -0.58,-3.5 -0.98,-5.73 h -102.67 c 1.37,11.347 2.62,22.468 4.06,33.558 7.44,57.07 15.61,114.059 22.13,171.231 4.06,35.605 1.5,70.957 -14.79,103.925 -17.32,35.059 -46.36,53.594 -84.56,57.657 -79.06,8.359 -154.28,-46.582 -171.14,-124.375 -11.15,-51.36 6.42,-100.586 47.31,-127.817 39.87,-26.519 82.56,-26.601 126.01,-9.402 22.03,8.711 40.79,22.512 58.65,41.133 M 471.738,684.203 367.73,606.781 c -5.542,8.731 -10.496,17.426 -16.285,25.528 -14.902,20.816 -33.41,36.375 -60.316,38.265 -22.391,1.567 -41.527,-5.804 -56.77,-22.312 -13.629,-14.758 -15.406,-35.742 -2.675,-52.41 14.023,-18.352 29.367,-35.754 45.035,-52.739 25.969,-28.152 53.121,-55.242 78.926,-83.543 23.476,-25.754 42.199,-54.648 47.972,-89.863 C 410.492,327.84 402.141,287.98 382.34,251.191 345.691,183.102 287.992,143.609 211.816,131.25 c -33.64,-5.449 -67.191,-4.379 -100.019,5.289 -43.5665,12.82 -73.8868,41.383 -93.3907,81.699 C 11.5195,232.488 6.25,247.531 0,262.801 l 112.781,60.363 c 1.305,-3.137 2.231,-5.742 3.449,-8.184 6.411,-12.832 11.661,-26.468 19.598,-38.269 23.547,-35.012 61.578,-45.672 100.168,-28.352 10.035,4.571 19.332,10.602 27.578,17.93 24.871,22.07 29.531,52.781 11.129,80.555 -10.578,15.957 -23.805,30.265 -36.676,44.562 -30.777,34.168 -62.793,67.246 -92.851,102.032 -20.719,23.984 -34.801,51.941 -39.258,84.054 -4.863,35.067 2.148,68.153 20.395,97.684 45.367,73.367 111.289,111.547 198.476,108.379 49.715,-1.801 89.293,-25.039 120.02,-63.664 9.086,-11.426 17.613,-23.305 26.929,-35.692 M 523.277,175.52 c -3.414,-25.598 -6.679,-49.719 -9.859,-73.872 C 509.18,69.5703 505.023,37.4805 500.957,5.37109 500.488,1.62109 499.348,-0.03125 495.328,0 463.695,0.128906 432.07,0.101563 400.445,0.140625 c -0.718,0 -1.441,0.398438 -3.16,0.871095 1.914,15.14848 3.774,30.35938 5.766,45.52738 6.976,53.2226 13.937,106.4489 21.019,159.6719 8.098,60.84 14.52,121.98 24.883,182.441 18.367,107.051 109.184,199.301 215.754,222.27 61.785,13.324 120.918,7.16 174.856,-27.602 53.792,-34.668 84.64,-84.98 91.675,-148.273 9.946,-89.481 -22.984,-163.758 -86.55,-225.227 -41.715,-40.332 -91.657,-65.968 -149.262,-74.648 -59.348,-8.942 -115.137,0.957 -165.196,35.949 -1.839,1.277 -3.8,2.391 -6.96,4.391 m 304.402,221.136 c -1.758,8.977 -3.016,22.161 -6.996,34.465 -19.281,59.492 -80.328,92.117 -143.52,77.403 -69.312,-16.125 -118.851,-70.618 -126.019,-141.348 -5.301,-52.324 22.879,-102.719 75.258,-121.637 42.203,-15.261 82.828,-8.871 120.554,13.75 50.008,30 77.129,74.547 80.723,137.367 z M 2192.49,143.539 c -43.97,0.082 -87.94,0.293 -131.91,0.109 -5.79,-0.019 -9.09,1.672 -12.33,6.602 -52.06,79.301 -104.34,158.43 -156.59,237.59 -1.67,2.519 -3.44,4.953 -6.39,9.191 C 1874.01,311.523 1863.02,227.93 1852,144.129 h -115.14 c 1.34,11.223 2.53,22.062 3.95,32.859 11.24,85.852 22.53,171.703 33.81,257.543 10.77,82.02 21.51,164.047 32.46,246.059 0.32,2.445 1.94,5.531 3.94,6.828 39.62,25.84 79.37,51.441 119.14,77.074 0.57,0.379 1.38,0.418 3.43,1.004 l -35.89,-273.711 1.4,-0.965 188.48,208.891 c 1.84,-10.629 3.44,-19.731 5,-28.832 4.47,-26.07 8.75,-52.18 13.53,-78.191 0.98,-5.243 -0.42,-8.504 -3.91,-12.153 -40.34,-42.215 -80.52,-84.57 -120.74,-126.883 -1.75,-1.847 -3.43,-3.761 -5.42,-5.957 1.26,-2.05 2.37,-4.023 3.67,-5.851 69.35,-97.371 138.74,-194.715 208.16,-292.043 1.25,-1.762 3.07,-3.153 4.62,-4.711 v -1.559"
         style="fill:#474c52;fill-opacity:1;fill-rule:nonzero;stroke:none"
         id="path16" /><path
         d="m 1402.1,706.727 22.69,128.648 h 71.34 l -4.55,-25.91 h -44.46 l -4.52,-24.981 h 40.85 l -4.53,-25.918 h -40.87 l -4.55,-25.918 h 44.47 l -4.54,-25.921 h -71.32 m -98.54,51.839 h -56 l -9.09,-51.839 h -26.85 l 22.7,128.648 h 26.87 l -9.09,-50.891 h 56.01 l 9.06,50.891 h 26.87 l -22.68,-128.648 h -26.87 l 9.07,51.839 M 1139.39,711.27 c -9.08,-4.157 -19.1,-6.633 -29.13,-6.633 -34.04,0 -55.44,25.558 -55.44,57.531 0,40.867 34.44,75.301 75.31,75.301 10.21,0 19.49,-2.457 27.05,-6.617 L 1153.39,800 c -5.67,6.25 -14.75,10.598 -26.1,10.598 -23.46,0 -44.27,-21.196 -44.27,-45.785 0,-18.723 11.73,-33.309 30.28,-33.309 11.35,0 22.31,4.355 29.69,10.41 l -3.6,-30.637 M 965.105,734.16 H 921.031 L 907.02,706.727 h -31.219 l 68.863,128.648 h 30.086 l 23.457,-128.648 h -28.93 l -4.172,27.433 m -30.648,25.918 h 26.496 l -6.25,40.117 z M 765.25,835.375 h 41.254 c 21.566,0 36.695,-12.863 36.695,-34.984 0,-27.821 -19.679,-46.543 -47.679,-46.543 h -17.778 l -8.332,-47.121 h -26.855 l 22.695,128.648 m 38.027,-25.91 h -15.711 l -5.281,-29.699 h 15.695 c 9.469,0 17.036,6.234 17.036,17.972 0,7.758 -4.743,11.727 -11.739,11.727 z M 645.551,734.16 h -44.086 l -14,-27.433 H 556.25 l 68.855,128.648 h 30.098 l 23.453,-128.648 h -28.949 l -4.156,27.433 m -30.656,25.918 h 26.496 l -6.25,40.117 z M 2240.05,191.012 v -46.801 h -8.92 v 46.801 h -16.91 v 7.238 h 42.75 v -7.23 h -16.92 m 78.43,-46.809 v 45.109 h -0.26 l -17.7,-45.109 h -5.65 l -17.7,45.109 h -0.26 v -45.109 h -8.92 v 54.027 h 13.77 l 16.13,-41.039 15.87,41.039 h 13.64 v -54.027 h -8.92 v 0"
         style="fill:#474c52;fill-opacity:1;fill-rule:nonzero;stroke:none"
         id="path18" /></g></g></svg>
