<?xml version="1.0" encoding="UTF-8" standalone="no"?>
<svg
   xmlns:dc="http://purl.org/dc/elements/1.1/"
   xmlns:cc="http://creativecommons.org/ns#"
   xmlns:rdf="http://www.w3.org/1999/02/22-rdf-syntax-ns#"
   xmlns:svg="http://www.w3.org/2000/svg"
   xmlns="http://www.w3.org/2000/svg"
   xmlns:sodipodi="http://sodipodi.sourceforge.net/DTD/sodipodi-0.dtd"
   xmlns:inkscape="http://www.inkscape.org/namespaces/inkscape"
   version="1.1"
   id="svg2"
   xml:space="preserve"
   width="384"
   height="261.33334"
   viewBox="0 0 384 261.33334"
   sodipodi:docname="microsoft-office-365-seeklogo.com.eps"><metadata
     id="metadata8"><rdf:RDF><cc:Work
         rdf:about=""><dc:format>image/svg+xml</dc:format><dc:type
           rdf:resource="http://purl.org/dc/dcmitype/StillImage" /></cc:Work></rdf:RDF></metadata><defs
     id="defs6" /><sodipodi:namedview
     pagecolor="#ffffff"
     bordercolor="#666666"
     borderopacity="1"
     objecttolerance="10"
     gridtolerance="10"
     guidetolerance="10"
     inkscape:pageopacity="0"
     inkscape:pageshadow="2"
     inkscape:window-width="640"
     inkscape:window-height="480"
     id="namedview4" /><g
     id="g10"
     inkscape:groupmode="layer"
     inkscape:label="ink_ext_XXXXXX"
     transform="matrix(1.3333333,0,0,-1.3333333,0,261.33333)"><g
       id="g12"
       transform="scale(0.1)"><path
         d="M 2880,0 H 0 V 1960 H 2880 V 0"
         style="fill:#ffffff;fill-opacity:1;fill-rule:nonzero;stroke:none"
         id="path14" /><path
         d="m 1335.77,1138.53 c -41.8,0 -75.72,-15.08 -101.8,-45.22 -26.08,-30.14 -39.11,-69.72 -39.11,-118.732 0,-49.008 12.71,-88.449 38.14,-118.308 25.43,-29.872 58.57,-44.809 99.45,-44.809 43.64,0 78.05,14.238 103.19,42.719 25.15,28.48 37.74,68.34 37.74,119.57 0,52.52 -12.21,93.11 -36.62,121.78 -24.41,28.67 -58.08,43 -100.99,43 z m -3.32,-368.96 c -56.41,0 -101.58,18.59 -135.51,55.758 -33.95,37.172 -50.91,85.543 -50.91,145.094 0,63.978 17.29,115.028 51.88,153.128 34.58,38.09 81.64,57.15 141.2,57.15 54.92,0 99.18,-18.5 132.75,-55.49 33.56,-36.99 50.33,-85.35 50.33,-145.073 0,-64.926 -17.19,-116.246 -51.58,-153.965 -34.4,-37.731 -80.45,-56.602 -138.16,-56.602"
         style="fill:#ea3021;fill-opacity:1;fill-rule:nonzero;stroke:none"
         id="path16" /><path
         d="m 1844.79,1164.32 c 11.27,0 21.37,-2.48 30.23,-7.48 v 41.05 c -8.14,3.34 -19.14,5 -33,5 -25.71,0 -47.17,-8.65 -64.36,-25.94 -17.21,-17.3 -25.8,-40.82 -25.8,-70.6 v -46.05 h -47.28 -1.27 -65.32 v 43.83 c 0,40.13 15.92,60.19 47.72,60.19 11.29,0 21.37,-2.48 30.23,-7.48 v 41.05 c -8.14,3.34 -19.14,5 -33.01,5 -25.7,0 -47.14,-8.65 -64.35,-25.94 -17.21,-17.3 -25.8,-40.82 -25.8,-70.6 v -46.05 h -48.54 v -38.84 h 48.54 V 776.23 h 45.21 v 245.23 h 65.32 1.27 47.28 V 776.23 h 45.22 v 245.23 h 66.56 v 38.84 h -66.56 v 43.83 c 0,40.13 15.89,60.19 47.71,60.19"
         style="fill:#ea3021;fill-opacity:1;fill-rule:nonzero;stroke:none"
         id="path18" /><path
         d="m 1951.68,776.23 h -45.48 v 284.07 h 45.48 z m -22.2,356.2 c -8.13,0 -15.06,2.77 -20.8,8.32 -5.75,5.54 -8.6,12.57 -8.6,21.09 0,8.5 2.85,15.57 8.6,21.22 5.74,5.64 12.67,8.46 20.8,8.46 8.34,0 15.41,-2.82 21.23,-8.46 5.82,-5.65 8.73,-12.72 8.73,-21.22 0,-8.15 -2.91,-15.08 -8.73,-20.82 -5.82,-5.73 -12.89,-8.59 -21.23,-8.59"
         style="fill:#ea3021;fill-opacity:1;fill-rule:nonzero;stroke:none"
         id="path20" /><path
         d="m 2206.2,789.262 c -21.82,-13.133 -47.72,-19.692 -77.68,-19.692 -40.49,0 -73.18,13.18 -98.05,39.532 -24.88,26.359 -37.32,60.527 -37.32,102.507 0,46.789 13.4,84.375 40.23,112.771 26.82,28.39 62.6,42.58 107.37,42.58 24.96,0 46.95,-4.62 66.01,-13.87 v -46.61 c -21.09,14.8 -43.65,22.19 -67.69,22.19 -29.03,0 -52.83,-10.4 -71.43,-31.197 -18.59,-20.813 -27.87,-48.133 -27.87,-81.985 0,-33.277 8.73,-59.547 26.21,-78.789 17.46,-19.23 40.92,-28.847 70.31,-28.847 24.79,0 48.09,8.23 69.91,24.699 v -43.289"
         style="fill:#ea3021;fill-opacity:1;fill-rule:nonzero;stroke:none"
         id="path22" /><path
         d="m 2437.95,945.449 c -0.19,26.27 -6.52,46.699 -19,61.311 -12.48,14.61 -29.8,21.91 -52.01,21.91 -21.47,0 -39.67,-7.67 -54.65,-23.02 -14.98,-15.345 -24.22,-35.416 -27.73,-60.201 z m 46.61,-38.558 h -200.57 c 0.74,-31.621 9.26,-56.039 25.53,-73.243 16.27,-17.187 38.65,-25.796 67.13,-25.796 31.99,0 61.4,10.546 88.22,31.628 v -42.718 c -24.96,-18.133 -57.99,-27.192 -99.04,-27.192 -40.14,0 -71.66,12.899 -94.59,38.692 -22.95,25.808 -34.4,62.109 -34.4,108.886 0,44.207 12.52,80.223 37.58,108.062 25.06,27.83 56.19,41.75 93.36,41.75 37.17,0 65.94,-12.03 86.27,-36.07 20.33,-24.04 30.51,-57.421 30.51,-100.152 v -23.847"
         style="fill:#ea3021;fill-opacity:1;fill-rule:nonzero;stroke:none"
         id="path24" /><path
         d="m 395.438,774.512 359.457,-128.633 199.293,64.32 v 536.821 l -199.293,67.1 -359.457,-138.76 V 774.512"
         style="fill:#ea3021;fill-opacity:1;fill-rule:nonzero;stroke:none"
         id="path26" /><path
         d="m 395.438,774.371 128.792,53.75 v 315.749 l 232.899,53.74 V 727.34 l -361.691,47.031"
         style="fill:#ffffff;fill-opacity:1;fill-rule:nonzero;stroke:none"
         id="path28" /></g></g></svg>
