<?xml version="1.0" encoding="UTF-8" standalone="no"?>
<svg
   xmlns:dc="http://purl.org/dc/elements/1.1/"
   xmlns:cc="http://creativecommons.org/ns#"
   xmlns:rdf="http://www.w3.org/1999/02/22-rdf-syntax-ns#"
   xmlns:svg="http://www.w3.org/2000/svg"
   xmlns="http://www.w3.org/2000/svg"
   xmlns:sodipodi="http://sodipodi.sourceforge.net/DTD/sodipodi-0.dtd"
   xmlns:inkscape="http://www.inkscape.org/namespaces/inkscape"
   version="1.1"
   id="svg2"
   xml:space="preserve"
   width="637.15997"
   height="542.66669"
   viewBox="0 0 637.15997 542.66669"
   sodipodi:docname="linkedin-in-icon-seeklogo.com.eps"><metadata
     id="metadata8"><rdf:RDF><cc:Work
         rdf:about=""><dc:format>image/svg+xml</dc:format><dc:type
           rdf:resource="http://purl.org/dc/dcmitype/StillImage" /></cc:Work></rdf:RDF></metadata><defs
     id="defs6" /><sodipodi:namedview
     pagecolor="#ffffff"
     bordercolor="#666666"
     borderopacity="1"
     objecttolerance="10"
     gridtolerance="10"
     guidetolerance="10"
     inkscape:pageopacity="0"
     inkscape:pageshadow="2"
     inkscape:window-width="640"
     inkscape:window-height="480"
     id="namedview4" /><g
     id="g10"
     inkscape:groupmode="layer"
     inkscape:label="ink_ext_XXXXXX"
     transform="matrix(1.3333333,0,0,-1.3333333,0,542.66667)"><g
       id="g12"
       transform="scale(0.1)"><path
         d="m 4505.89,814.141 h -47.26 v 95.718 h 59.84 c 31.13,0 66.35,-5.089 66.35,-45.609 0,-46.359 -35.54,-50.109 -78.93,-50.109 z m 47.03,-28.493 c 47.8,5.852 72.86,32.243 72.86,76.403 0,53.879 -32.79,80.039 -99.92,80.039 H 4418.11 V 658.68 h 40.52 v 123.441 h 50.13 l 0.98,-1.551 77.95,-121.89 h 43.28 l -83.47,126.199 5.42,0.769"
         style="fill:#231f20;fill-opacity:1;fill-rule:nonzero;stroke:none"
         id="path14" /><path
         d="m 4510.52,567.039 c -128.29,0 -228.98,101.359 -228.98,232.961 0,131.5 100.69,232.95 228.98,232.95 128.4,0 228.87,-101.45 228.87,-232.95 0,-131.602 -100.47,-232.961 -228.87,-232.961 z m 0,501.031 c -150.49,0 -268.39,-117.699 -268.39,-268.07 0,-150.48 117.9,-268.059 268.39,-268.059 150.26,0 268.18,117.579 268.18,268.059 0,150.371 -117.92,268.07 -268.18,268.07"
         style="fill:#231f20;fill-opacity:1;fill-rule:nonzero;stroke:none"
         id="path16" /><path
         d="M 3768.81,4070 H 300.191 C 134.586,4070 0,3938.62 0,3776.54 V 293.68 C 0,131.609 134.586,0 300.191,0 H 3768.81 c 165.94,0 301.08,131.609 301.08,293.68 v 3482.86 c 0,162.08 -135.14,293.46 -301.08,293.46"
         style="fill:#0977b6;fill-opacity:1;fill-rule:nonzero;stroke:none"
         id="path18" /><path
         d="m 905.328,3509.69 c 193.102,0 349.872,-156.83 349.872,-350.04 0,-193.27 -156.77,-350.1 -349.872,-350.1 -193.875,0 -350.207,156.83 -350.207,350.1 0,193.21 156.332,350.04 350.207,350.04 M 603.035,2544.19 H 1207.29 V 601.93 H 603.035 v 1942.26"
         style="fill:#ffffff;fill-opacity:1;fill-rule:nonzero;stroke:none"
         id="path20" /><path
         d="m 1585.98,2544.19 h 578.64 v -265.52 h 8.27 c 80.49,152.69 277.45,313.72 571.14,313.72 611.2,0 724.15,-402.16 724.15,-925.26 V 601.93 h -603.59 v 944.52 c 0,225.23 -3.87,514.99 -313.66,514.99 -314.1,0 -362.03,-245.49 -362.03,-498.87 V 601.93 h -602.92 v 1942.26"
         style="fill:#ffffff;fill-opacity:1;fill-rule:nonzero;stroke:none"
         id="path22" /></g></g></svg>
